<svg width="366" height="116" xmlns="http://www.w3.org/2000/svg"><g fill="#FFF" fill-rule="evenodd"><path d="M231.59 106.681l-3.46 3.274v5.245h-4.649V87.598h4.65v16.665l9.635-8.928h5.58l-8.295 8.333 9.076 11.532h-5.654l-6.882-8.519zm-90.975 8.52v-21.95h8.63V89.16H127.15v4.092h8.63V115.2h4.836zm18.996-9.636v9.635h-4.65V95.335h4.427v2.902q2.009-3.125 7.068-3.125v4.427q-.595-.112-1.079-.112c-1.81 0-3.224.527-4.24 1.581q-1.526 1.581-1.526 4.557zm19.666 9.895q2.232 0 3.813-.688c1.054-.459 1.866-1.122 2.437-1.99v2.418h4.39v-11.644c0-2.827-.776-4.94-2.326-6.342q-2.325-2.102-6.714-2.102-2.456 0-4.65.632-2.195.633-3.758 1.823l1.823 3.385q1.116-.93 2.734-1.45a10.684 10.684 0 013.293-.521q2.455 0 3.7 1.116c.832.744 1.247 1.81 1.247 3.2v.297h-5.133q-4.278 0-6.269 1.618c-1.326 1.079-1.99 2.51-1.99 4.296 0 1.141.304 2.164.912 3.07.607.905 1.469 1.611 2.585 2.12 1.116.508 2.418.762 3.906.762zm28.891 0c1.935 0 3.64-.403 5.115-1.209q2.214-1.209 3.367-3.44l-3.571-2.084c-.57.918-1.284 1.606-2.14 2.065a5.849 5.849 0 01-2.808.688c-1.76 0-3.205-.564-4.334-1.693-1.128-1.128-1.692-2.635-1.692-4.52 0-1.884.57-3.39 1.71-4.52q1.712-1.692 4.316-1.692a5.86 5.86 0 012.809.688c.855.46 1.568 1.147 2.139 2.065l3.57-2.083a7.724 7.724 0 00-3.329-3.423q-2.213-1.19-5.152-1.19c-2.083 0-3.937.434-5.561 1.302-1.625.868-2.896 2.07-3.813 3.608-.918 1.538-1.377 3.286-1.377 5.246 0 1.959.46 3.713 1.377 5.263.917 1.55 2.195 2.76 3.831 3.627 1.637.868 3.485 1.302 5.543 1.302zm-30.714-4.129c.67.496 1.6.744 2.79.744q1.749 0 3.106-.8a4.352 4.352 0 001.916-2.287v-2.307h-4.799q-4.017 0-4.017 2.641c0 .844.335 1.513 1.004 2.01z" fill-opacity=".652"/><path d="M141.295 76.558l6.366-21.636h28.59l6.367 21.636h14.295L173.795 3.66A4.668 4.668 0 00171.952 1c-.93-.667-1.992-1-3.182-1h-13.625c-1.191 0-2.252.333-3.183.999q-1.396.998-1.843 2.662L127 76.558h14.295zm155.239.72c-2.83.334-5.212.5-7.148.5q-7.148 0-11.001-4.105c-2.568-2.737-3.853-6.657-3.853-11.761l-.111-29.957h-9.828v-9.21l9.828-.554V6.546h13.513v15.645h16.082v9.764h-16.082v27.627c0 2.367.484 4.013 1.452 4.937.968.925 2.68 1.387 5.137 1.387h7.483l1.452 9.986c-1.787.592-4.095 1.054-6.924 1.387zM151.012 43.495h21.89l-7.707-26.407q-.223-.999-.837-3.051-.615-2.053-.838-3.495h-3.015l-1.787 6.546-7.706 26.407zM339.085 78c6.626 0 11.894-.943 15.803-2.83q5.863-2.829 8.487-9.042c1.75-4.142 2.625-9.727 2.625-16.754 0-7.027-.875-12.63-2.625-16.81q-2.624-6.268-8.487-9.097c-3.909-1.887-9.177-2.83-15.803-2.83q-9.94 0-15.859 2.83c-3.946 1.886-6.813 4.919-8.6 9.098-1.787 4.179-2.68 9.782-2.68 16.81 0 7.026.893 12.61 2.68 16.753 1.787 4.142 4.635 7.156 8.544 9.043 3.909 1.886 9.214 2.829 15.915 2.829zM219.92 78c3.871 0 7.668-.721 11.391-2.164 3.723-1.442 7.557-3.642 11.503-6.601l1.006 7.323h10.721V22.19h-13.513v38.5c-3.649 2.071-6.664 3.57-9.047 4.494-2.382.924-4.69 1.387-6.924 1.387-2.606 0-4.393-.555-5.36-1.665-.969-1.109-1.415-3.106-1.34-5.99V22.19H204.73v40.72c0 4.955 1.284 8.71 3.853 11.261C211.153 76.724 214.93 78 219.92 78zm111.29-12.316c1.824 1.036 4.449 1.553 7.874 1.553 3.35 0 5.937-.517 7.761-1.553 1.825-1.035 3.128-2.83 3.909-5.381.782-2.552 1.173-6.195 1.173-10.929 0-4.808-.391-8.488-1.173-11.04-.781-2.552-2.084-4.345-3.909-5.38-1.824-1.037-4.411-1.554-7.761-1.554-3.425 0-6.05.518-7.874 1.553-1.824 1.036-3.127 2.83-3.909 5.381-.782 2.552-1.173 6.232-1.173 11.04 0 4.734.391 8.377 1.173 10.929.782 2.552 2.085 4.346 3.909 5.381z"/></g><g fill="#FFF" fill-rule="evenodd"><path d="M63.426 69.755l.737-3.305q-.506.237-1.024.447-.517.21-1.045.394-.528.184-1.064.34-.537.156-1.08.284-.545.128-1.094.228-.55.1-1.104.171-.554.072-1.111.114-.557.043-1.116.057-.559.014-1.117 0-.559-.015-1.116-.059-.557-.043-1.11-.116-.555-.072-1.104-.172-.55-.101-1.093-.23-.544-.129-1.08-.285-.537-.157-1.064-.341-.528-.184-1.045-.395l-1.07-.437 1.209 3.327 4.641 21.873a6.76 6.76 0 00-.756 1.948l-.562 2.57a7.423 7.423 0 01-1.425 3.014l-.271.344c-.499.631-1.259 1-2.063 1h-.207a2.7 2.7 0 00-1.845.728l-.797.746 7.232 1.512q1.072.225 2.162.337 1.09.112 2.186.111 1.096 0 2.186-.115 1.09-.114 2.162-.34L66.707 102l-.797-.746-.096-.085a2.7 2.7 0 00-1.75-.644h-.206l-.12-.002a2.628 2.628 0 01-1.943-.997l-.271-.344-.129-.167a7.422 7.422 0 01-1.297-2.848l-.561-2.569-.054-.227a6.757 6.757 0 00-.703-1.721l4.646-21.895zm.914-23.445l-3.385.083q.352.435.682.886.33.451.635.919t.587.95q.28.483.537.98.255.497.485 1.006.23.509.434 1.03.203.52.38 1.05.176.53.324 1.069.15.538.27 1.084.12.545.213 1.096t.157 1.106q.064.555.099 1.113.035.557.042 1.116.006.559-.016 1.117-.022.558-.073 1.115-.051.556-.131 1.109l-.165 1.144 2.937-1.978 20.1-9.795a6.76 6.76 0 002.073.263l2.628-.077a7.423 7.423 0 013.27.654l.4.18c.733.33 1.274.979 1.469 1.76l.05.2a2.7 2.7 0 001.153 1.614l.916.593-.282-7.383q-.041-1.095-.196-2.18-.155-1.084-.421-2.147-.266-1.064-.64-2.093-.375-1.03-.854-2.016l-3.184-6.553-.531.954-.06.113a2.7 2.7 0 00-.201 1.853l.05.201.026.118c.15.745-.03 1.52-.497 2.125l-.268.347-.131.165a7.422 7.422 0 01-2.45 1.948l-2.356 1.165-.207.108a6.757 6.757 0 00-1.5 1.098l-22.369.79zm-22.879 16.6l2.974 1.62q-.088-.552-.148-1.108-.06-.555-.09-1.113-.03-.558-.033-1.117-.002-.558.025-1.116.026-.558.082-1.114.055-.556.14-1.109.083-.552.196-1.1.112-.547.253-1.087.14-.541.308-1.074.168-.533.364-1.056.195-.524.417-1.036.222-.513.47-1.014.249-.5.523-.987.273-.487.572-.96.298-.472.62-.928.323-.457.668-.896l.715-.908-3.532.245-22.304-1.568a6.76 6.76 0 00-1.665-1.264l-2.314-1.247a7.423 7.423 0 01-2.505-2.202l-.256-.355a2.628 2.628 0 01-.392-2.259l.057-.199a2.7 2.7 0 00-.192-1.974l-.497-.972-3.448 6.535q-.51.97-.92 1.986-.408 1.017-.709 2.07-.3 1.055-.491 2.134t-.269 2.172l-.519 7.267.937-.56.108-.069a2.7 2.7 0 001.1-1.504l.058-.199.036-.115a2.628 2.628 0 011.493-1.592l.405-.166.197-.078a7.422 7.422 0 013.095-.462l2.624.169.233.01a6.757 6.757 0 001.848-.2l19.766 10.5z"/><path d="M109.8 57.9c0 30.32-24.58 54.9-54.9 54.9S0 88.22 0 57.9 24.58 3 54.9 3s54.9 24.58 54.9 54.9zm-9.9 0c0 24.853-20.147 45-45 45s-45-20.147-45-45 20.147-45 45-45 45 20.147 45 45z"/><path d="M67.95 57.9c0 7.207-5.843 13.05-13.05 13.05-7.207 0-13.05-5.843-13.05-13.05 0-7.207 5.843-13.05 13.05-13.05 7.207 0 13.05 5.843 13.05 13.05zm-4.95 0a8.1 8.1 0 11-16.2 0 8.1 8.1 0 0116.2 0z"/></g></svg>