<svg version="1.0" xmlns="http://www.w3.org/2000/svg" width="1706.667" height="1706.667" viewBox="0 0 1280 1280"><g fill="#fff"><path d="M606.5 105.6c-2.2.2-9.6.9-16.5 1.5-104.1 9.1-206.3 51-288.4 118.1-48.7 39.8-88.2 85.6-121.9 141.3-10 16.5-29.8 56.6-37.3 75.5-18.7 47.5-29.7 93.1-35.6 148.5-1.7 16.2-1.7 82.8 0 99 7.4 68.9 23 125.1 50.9 182.5 11.5 23.8 20.4 39.6 34.1 60.5 84.8 129.6 220.1 215.8 372.7 237.4 28.7 4.1 37.4 4.6 75.5 4.6s46.8-.5 75.5-4.6c173-24.5 323.6-132.6 402.4-288.9 30.7-60.7 47.5-118.9 55.3-191.5 1.7-16.1 1.8-82.8 0-99-7.4-68.9-23-125-50.9-182.5-11.5-23.9-20.4-39.6-34.1-60.5-47-71.8-108-129.3-182.7-172.5-16.4-9.5-50.8-26-69.5-33.3-44.9-17.7-88.8-28.4-140.6-34.3-13-1.5-78.2-2.8-88.9-1.8zm7 94.4c1.5.6.9.9-2.5.9s-4-.3-2.5-.9c1.1-.5 2.2-.9 2.5-.9.3 0 1.4.4 2.5.9zm16.7.2c-4.7.6-8.4.5-10-.1-2.1-.7-.3-.9 7.3-.9l10 .1-7.3.9zm29.6-.1c-1.6.6-5.3.7-10 .1l-7.3-.9 10-.1c7.6 0 9.4.2 7.3.9zm11.7-.1c1.5.6.9.9-2.5.9s-4-.3-2.5-.9c1.1-.5 2.2-.9 2.5-.9.3 0 1.4.4 2.5.9zm-67 .9c-.6.5-6.6 1.4-13.5 2.1-54 4.9-117.9 25.5-167.5 53.9-104.6 60-179.6 157.7-209.4 273.1-3.9 14.8-8.3 36.9-9.6 47.5-.3 2.7-.8 6.1-1 7.5-.3 1.4-.7 6.1-1.1 10.5-.3 4.4-1 8.4-1.5 8.9-1.1 1.3-1.2 1.6.6-12.9 6.5-54.9 20.5-102.7 43.4-148.2 22.7-45.4 56.6-91.1 91.6-123.7 69.4-64.6 149.8-103.3 242-116.5 20.4-3 27.4-3.5 26-2.2zm97 2.2c153.3 21.6 283.5 121.3 344.5 264 16.9 39.4 27 78 32.5 124.4 1.8 14.5 1.7 14.2.6 12.9-.5-.5-1.2-4.7-1.6-9.4-.3-4.7-.8-9.2-1-10-.2-.8-.7-4-1-7-1.8-16.3-9.7-51.3-16.5-72.5-7.9-24.8-24.2-61.6-37.1-84C962.8 319 865.1 244.1 752 214.6c-24-6.3-43.4-9.9-63-11.7-6.9-.6-12.9-1.5-13.5-2.1-1.2-1.1 6.1-.5 26 2.3zm-60.1 67.1c.5 3.2 1.5 30.5 3.6 99 5.4 176.9 6 192.6 7.1 190.6 1.4-2.5 5.5-21.1 7.8-34.8 2.9-18.4 4.8-34.2 7.6-65 1.3-15.1 3-32.7 3.5-39 7.1-75.7 15.3-110.2 31.3-131.5 9.7-12.9 23.2-18.7 38.7-16.5 29.7 4.2 102.6 39.7 122.3 59.6 21.2 21.4 13.8 51-23.5 94.6-10.3 12-44.2 46-82.7 82.9-12.9 12.3-28.8 28.2-35.4 35.4-12.2 13.2-28.7 33.2-28.7 34.8 0 1.2-4.4 4.4 107.5-79.2C917.3 413.8 927.9 406 929.7 406c3.6 0 2.5 1.1-62.5 56.2-102 86.7-157.7 134.1-159.2 135.5-1.3 1.3-1.2 1.4 1 .8 5.2-1.4 29.5-14 45.7-23.7 9.2-5.5 33-20.7 52.8-33.8 67.4-44.4 91.6-58.2 117.1-66.6 26.7-8.7 44.9-6.3 57.8 7.6 6.6 7.2 9.8 13.7 16.4 33 12.2 35.9 19.9 77.2 19 101.9-.4 10.5-.7 12.2-3.6 18.3-4 8.2-10.8 14.6-20.6 19.2-14.7 6.9-31.4 9.1-62.1 8.3-23.2-.7-37.8-2.2-97.5-10.2-22.3-3-47-6.1-55-7-17.2-1.9-62-3.2-60.5-1.8 1.1 1.1 12.2 4 145.9 38.9 126.4 33 137.6 36 137.6 37.5 0 2.2-4.5 1.4-121-21.5-51.2-10.1-148.4-29-165-32.2-5.3-1-3 .7 9 6.7 18.1 9 37.8 16.3 94.5 35 60.5 20 82.3 27.9 102.3 37.5 43.2 20.5 60.3 43.1 52.4 69.1-6.1 19.9-42.6 69.5-71 96.4-13.2 12.5-21.9 17.4-33 18.5-15.7 1.7-35.7-9.6-53.6-30.3-17.2-19.8-30-39-65.1-97.3-14.7-24.5-30.6-50.3-35.2-57.3-12.1-18.4-32.3-44.7-32.3-42 0 1.1 18.6 43.2 76.7 174.3 38.2 86.1 41.9 94.7 40.8 95.8-1.4 1.3-4.6-4.6-43.5-79.3-58.9-113.4-93.3-179.1-94.2-180-2.8-2.8 5 29.2 13.2 53.6 3.2 9.7 12.8 36.2 21.4 59 30.3 80.9 37.7 107.5 37.9 135.4.1 13-1.2 20-4.9 28.1-9.8 20.9-30 26.9-91.4 26.9-41.9 0-61.9-2.6-75.2-9.7-9.7-5.2-17-15.2-19.9-27.4-1.9-8-1.4-28.4.9-41.4 4.6-25.2 11.9-48 35.9-112 8.5-22.8 18.1-49.5 21.4-59.2 8.1-24.5 15.9-56.1 13.1-53.3-1.1 1.1-15.4 28.4-80.2 153-24.9 47.8-47.7 91.4-50.7 96.7-4.8 8.8-7.3 11.7-7.3 8.8 0-1.6 12.8-31.1 45-103.5 49.8-112 73-164.7 73-165.8 0-2.7-20.1 23.5-32.3 42-4.7 7-20.5 32.8-35.2 57.3-38.2 63.5-54.2 86.7-72.6 105.1-14.9 14.9-28.7 22.2-42.4 22.3-13.1.2-21.8-4.2-36.7-18.3-28.4-26.9-64.9-76.5-71-96.4-7.9-26 9.2-48.6 52.4-69.1 20-9.6 41.8-17.5 102.3-37.5 56.7-18.7 76.4-26 94.5-35 12-6 14.3-7.7 9-6.7-18.1 3.5-121.1 23.5-180 35.1C289.5 720 284.2 721 280.1 721c-10.9 0-.6-2.9 133.9-38 136-35.5 146.4-38.2 147.5-39.3 1.5-1.4-43.3-.1-60.5 1.8-8 .9-32.9 4.1-55.5 7.1-58.6 7.8-73.3 9.4-97 10.1-48.1 1.4-72.7-6.8-82.7-27.5-2.9-6-3.3-7.8-3.6-17.6-1-25.2 6.7-66.4 19-102.6 6.6-19.3 9.8-25.8 16.4-33 12.9-13.9 31.1-16.3 57.8-7.6 25.5 8.4 49.7 22.2 117.1 66.6 41.5 27.4 64.2 41.2 82.8 50.4 14.3 7 19.3 8.9 16.7 6.4-1.7-1.7-65.1-55.7-146-124.3-77.7-65.9-79.4-67.5-75.7-67.5 1.8 0 17.5 11.6 109.2 80.2 114.3 85.4 126.9 94.8 127.3 94.3.5-.4-5.9-9.1-12.7-17.3-11-13.2-28.8-31.7-51.2-53.1-74-70.8-96.2-95.2-109.3-120.1-12.2-23.2-11.2-42.9 3.1-57.4 19.4-19.7 92.7-55.4 122.3-59.6 15.5-2.2 29 3.6 38.7 16.5 16 21.3 24.1 55.1 31.2 131.5.6 6.3 2.3 23.9 3.6 39 2.9 31.9 4.8 47.6 7.6 65 2.3 13.8 6.4 32.3 7.8 34.8 1.1 2 1.7-15.1 7.1-190.3 2.1-69.7 3.1-98.1 3.6-100.3.7-3.2 2.2-2.7 2.8 1zM200.9 610.7c0 3.6-.2 4.3-.9 2.7-.7-1.8-.3-7.4.6-7.4.2 0 .4 2.1.3 4.7zm879.1 2.6c-.7 1.7-.9 1-.9-2.8.1-4.3.2-4.6.9-2.2.5 1.6.5 3.8 0 5zm-879.9 17l-.8 8.2-.1-10.5c-.1-7.4.2-9.8.9-8.2.5 1.4.5 5.6 0 10.5zm880.8-1.6l-.2 10.8-.8-8c-.7-7.2-.4-13.5.7-13.5.2 0 .3 4.8.3 10.7zm0 23c0 7.4-.3 10.1-.9 8.6-.8-2-.2-19.3.6-19.3.2 0 .4 4.8.3 10.7zm-880.8 8.5c-.7 1.6-1-.8-.9-8.2l.1-10.5.8 8.2c.5 4.9.5 9.1 0 10.5zm.8 9.5c-.1 4.2-.2 4.4-.9 2.1-.7-2.5-.3-6.8.6-6.8.2 0 .4 2.1.3 4.7zm879.2 1.1c-.9 2.5-.9 2.4-1-1.8 0-3.6.2-4.1 1-2.7.7 1.2.7 2.7 0 4.5zM202.5 685c.3 4.7.8 9.2 1 10 .2.8.7 3.7 1 6.4 1.8 16.6 8.6 47.5 15.2 68.6C264.4 914.6 382 1027.3 528 1065.4c14 3.6 28.4 6.7 40.5 8.6 3.9.6 10.6 1.7 15 2.5l8 1.4-8.5-.5c-10.4-.7-42.2-7-60.1-11.9-139.3-38.4-252.2-143.8-299.3-279.5-11.4-32.8-17.7-60.4-22.1-97.5-1.8-14.5-1.7-14.2-.6-13 .5.6 1.2 4.8 1.6 9.5zm876.1 3.1c-8.7 73.1-30.8 134.7-70.1 194.4-63.3 96.4-165.2 166.2-276 188.9-22.4 4.6-28 5.5-36 6l-8 .5 8-1.4c4.4-.8 11.2-1.9 15-2.5 49.6-7.8 102.9-26.8 147.5-52.5 68.7-39.5 126.2-97.8 165.1-167 19-34 34.3-72.9 43.3-110.5 3.7-15.4 7.2-33.9 8.2-43 .3-3 .7-5.7.9-6 .2-.4.7-4.6 1-9.5.7-8.6 1.2-11.1 2.1-10.2.2.2-.2 6-1 12.8zm-473.7 390.5c.2.2.2.6-.1.9-.8.8-11.8-.7-11.3-1.5.4-.7 10.6-.1 11.4.6zm81.6-.6c.3.6-.4 1-1.7 1-1.3 0-4 .3-6 .6-2.4.4-3.8.3-3.8-.4 0-.6 2.1-1.3 4.8-1.5 2.6-.2 5-.4 5.4-.5.4-.1 1 .2 1.3.8zm-73.2 2c-1.4.6-3.2.6-4.5 0-1.9-.7-1.5-.9 2.2-.9s4.1.2 2.3.9zm23.6.6c.2.2-4 .4-9.5.3-6.7 0-9.2-.3-7.9-.9 1.8-.8 16.4-.3 17.4.6zm23.6-.6c1.3.5-1.6.8-8 .8-8.1-.1-9-.2-5-.8 7.2-1 10.7-1 13 0zm10.8 0c-1.4.6-3.2.6-4.5 0-1.9-.7-1.5-.9 2.2-.9s4.1.2 2.3.9z"/><path d="M632.5 570.1c-15.6 1.5-34.2 10.7-44.3 21.9-5.1 5.7-11.5 16.4-14.3 24-9.8 26.9-2.5 56.5 18.5 75.8 3.1 2.8 5.6 5.5 5.6 6.1 0 .6.7 1.1 1.6 1.1 1.5 0 14.6 6.3 17.1 8.3.7.5 3 1.1 5 1.3 2.1.2 7.1.7 11.1 1.2 3.9.4 10.5.4 14.5 0 3.9-.5 8.9-1 11-1.2 2-.2 4.3-.8 5-1.4 2.2-1.8 15.6-8.2 17.2-8.2.8 0 1.5-.7 1.5-1.5s1.2-2.2 2.7-3.2c4.6-3.1 15.1-16.3 18.7-23.7 3-6.1 5.3-14.5 6.9-24.9.9-5.9-1.3-21.7-4.2-29.7-2.7-7.4-9.2-18.2-14.4-24-9.3-10.5-28.3-20.3-41.6-21.6-3.1-.3-6.7-.6-8.1-.8-1.4-.1-5.6.1-9.5.5zm-37.9 24.6c-1 1-1.9-.5-1-1.8.6-1.1.8-1.1 1.2 0 .2.7.1 1.5-.2 1.8zm93.4-1.3c0 .3-.4.8-1 1.1-.5.3-1 .1-1-.4 0-.6.5-1.1 1-1.1.6 0 1 .2 1 .4zm-100 16.9c0 1.9-1 2.7-2.6 2-2.1-.8-1.7-3.3.6-3.3 1.1 0 2 .6 2 1.3zm108-.4c0 .5-.6 1.4-1.4 2-1.6 1.3-3.2-.2-2.1-1.9.8-1.2 3.5-1.3 3.5-.1zM585.5 669c1 1.6-1.6 4.3-2.8 3.1-1.1-1.1-.2-4.1 1.2-4.1.5 0 1.3.5 1.6 1zm112.3 1.3c.2 1-.3 1.7-1.2 1.7-1.8 0-2.9-1.6-2.1-3.1.9-1.4 2.9-.6 3.3 1.4zm-95.8 9.1c0 1.1-1.9 1.5-2.5.6-.3-.5.1-1 .9-1 .9 0 1.6.2 1.6.4zm79 .6c0 .5-.4 1-.9 1-.6 0-1.3-.5-1.6-1-.3-.6.1-1 .9-1 .9 0 1.6.4 1.6 1zm-86.8 7.2c-.7.7-1.2.8-1.2.2 0-1.4 1.2-2.6 1.9-1.9.2.3-.1 1.1-.7 1.7zm92.8-.2c0 .5-.2 1-.4 1-.3 0-.8-.5-1.1-1-.3-.6-.1-1 .4-1 .6 0 1.1.4 1.1 1z"/></g></svg>