<?xml version="1.0" encoding="utf-8"?>
<svg width="366px" height="116px" viewBox="0 0 366 116" version="1.1" xmlns:xlink="http://www.w3.org/1999/xlink" xmlns="http://www.w3.org/2000/svg">
  <desc>Created with Lunacy</desc>
  <g id="Group" transform="translate(127 0)">
    <path d="M104.442 19.0836L100.982 22.3572L100.982 27.6024L96.3324 27.6024L96.3324 0L100.982 0L100.982 16.6656L110.617 7.7376L116.197 7.7376L107.902 16.0704L116.978 27.6024L111.324 27.6024L104.442 19.0836ZM13.4664 27.6024L13.4664 5.6544L22.0968 5.6544L22.0968 1.5624L0 1.5624L0 5.6544L8.6304 5.6544L8.6304 27.6024L13.4664 27.6024ZM32.4624 17.9676L32.4624 27.6024L27.8124 27.6024L27.8124 7.7376L32.2392 7.7376L32.2392 10.6392Q34.248 7.5144 39.3072 7.5144L39.3072 11.9412Q38.712 11.8296 38.2284 11.8296C36.418 11.8296 35.0044 12.3566 33.9876 13.4106Q32.4624 14.9916 32.4624 17.9676ZM52.128 27.8628Q54.36 27.8628 55.941 27.1746C56.995 26.7158 57.8072 26.0524 58.3776 25.1844L58.3776 27.6024L62.7672 27.6024L62.7672 15.9588C62.7672 13.1316 61.9922 11.0174 60.4422 9.6162Q58.1172 7.5144 53.7276 7.5144Q51.2724 7.5144 49.0776 8.1468Q46.8828 8.7792 45.3204 9.9696L47.1432 13.3548Q48.2592 12.4248 49.8774 11.904C50.9562 11.5568 52.0536 11.3832 53.1696 11.3832Q55.6248 11.3832 56.871 12.4992C57.7018 13.2432 58.1172 14.3096 58.1172 15.6984L58.1172 15.996L52.9836 15.996Q48.7056 15.996 46.7154 17.6142C45.3886 18.693 44.7252 20.1252 44.7252 21.9108C44.7252 23.0516 45.029 24.0746 45.6366 24.9798C46.2442 25.885 47.106 26.5918 48.222 27.1002C49.338 27.6086 50.64 27.8628 52.128 27.8628ZM81.0192 27.8628C82.9536 27.8628 84.6586 27.4598 86.1342 26.6538Q88.3476 25.4448 89.5008 23.2128L85.9296 21.1296C85.3592 22.0472 84.6462 22.7354 83.7906 23.1942C82.935 23.653 81.9988 23.8824 80.982 23.8824C79.2212 23.8824 77.7766 23.3182 76.6482 22.1898C75.5198 21.0614 74.9556 19.5548 74.9556 17.67C74.9556 15.7852 75.526 14.2786 76.6668 13.1502Q78.378 11.4576 80.982 11.4576C81.9988 11.4576 82.935 11.687 83.7906 12.1458C84.6462 12.6046 85.3592 13.2928 85.9296 14.2104L89.5008 12.1272C88.7568 10.6392 87.647 9.4984 86.1714 8.7048Q83.958 7.5144 81.0192 7.5144C78.936 7.5144 77.0822 7.9484 75.4578 8.8164C73.8334 9.6844 72.5624 10.8872 71.6448 12.4248C70.7272 13.9624 70.2684 15.7108 70.2684 17.67C70.2684 19.6292 70.7272 21.3838 71.6448 22.9338C72.5624 24.4838 73.8396 25.6928 75.4764 26.5608C77.1132 27.4288 78.9608 27.8628 81.0192 27.8628ZM50.3052 23.7336C50.9748 24.2296 51.9048 24.4776 53.0952 24.4776Q54.8436 24.4776 56.2014 23.6778C57.1066 23.1446 57.7452 22.382 58.1172 21.39L58.1172 19.0836L53.3184 19.0836Q49.3008 19.0836 49.3008 21.7248C49.3008 22.568 49.6356 23.2376 50.3052 23.7336Z" transform="translate(0.1489258 87.59766)" id="Track" fill="#FFFFFF" fill-opacity="0.6518322" fill-rule="evenodd" stroke="none" />
    <path d="M14.2953 76.5576L20.6612 54.9218L49.2519 54.9218L55.6178 76.5576L69.9131 76.5576L46.7949 3.66145C46.497 2.55192 45.8828 1.6643 44.9521 0.998578C44.0214 0.332859 42.9604 0 41.7692 0L28.1439 0C26.9526 0 25.8917 0.332859 24.961 0.998578Q23.565 1.99716 23.1182 3.66145L0 76.5576L14.2953 76.5576ZM169.534 77.2788C166.704 77.6117 164.322 77.7781 162.386 77.7781Q155.238 77.7781 151.385 73.6728C148.817 70.936 147.532 67.0156 147.532 61.9118L147.421 31.9545L137.593 31.9545L137.593 22.7454L147.421 22.1906L147.421 6.54623L160.934 6.54623L160.934 22.1906L177.016 22.1906L177.016 31.9545L160.934 31.9545L160.934 59.5818C160.934 61.9488 161.418 63.5946 162.386 64.5192C163.354 65.4438 165.066 65.9061 167.523 65.9061L175.006 65.9061L176.458 75.8919C174.671 76.4836 172.363 76.9459 169.534 77.2788ZM24.0117 43.4936L45.9014 43.4936L38.1953 17.0868Q37.972 16.0882 37.3577 14.0356Q36.7435 11.9829 36.5201 10.5405L33.5047 10.5405L31.7178 17.0868L24.0117 43.4936ZM212.085 78C218.711 78 223.979 77.0569 227.888 75.1707Q233.751 72.3414 236.375 66.128C238.125 61.9858 239 56.4011 239 49.3741C239 42.3471 238.125 36.744 236.375 32.5647Q233.751 26.2959 227.888 23.4666C223.979 21.5804 218.711 20.6373 212.085 20.6373Q202.145 20.6373 196.226 23.4666C192.28 25.3528 189.413 28.3855 187.626 32.5647C185.839 36.744 184.946 42.3471 184.946 49.3741C184.946 56.4011 185.839 61.9858 187.626 66.128C189.413 70.2703 192.261 73.2845 196.17 75.1707C200.079 77.0569 205.384 78 212.085 78ZM92.9196 78C96.7913 78 100.588 77.2788 104.311 75.8364C108.034 74.394 111.868 72.1935 115.814 69.2347L116.82 76.5576L127.541 76.5576L127.541 22.1906L114.028 22.1906L114.028 60.6913C110.379 62.7624 107.364 64.2603 104.981 65.1849C102.599 66.1095 100.291 66.5718 98.057 66.5718C95.4511 66.5718 93.6642 66.0171 92.6963 64.9075C91.7283 63.798 91.2816 61.8008 91.3561 58.9161L91.3561 22.1906L77.7308 22.1906L77.7308 62.9104C77.7308 67.8663 79.0152 71.6202 81.5839 74.1721C84.1526 76.724 87.9312 78 92.9196 78ZM204.211 65.6842C206.035 66.7198 208.66 67.2375 212.085 67.2375C215.435 67.2375 218.022 66.7198 219.846 65.6842C221.671 64.6486 222.974 62.8549 223.755 60.303C224.537 57.7511 224.928 54.1081 224.928 49.3741C224.928 44.5661 224.537 40.8862 223.755 38.3343C222.974 35.7824 221.671 33.9886 219.846 32.9531C218.022 31.9175 215.435 31.3997 212.085 31.3997C208.66 31.3997 206.035 31.9175 204.211 32.9531C202.387 33.9886 201.084 35.7824 200.302 38.3343C199.52 40.8862 199.129 44.5661 199.129 49.3741C199.129 54.1081 199.52 57.7511 200.302 60.303C201.084 62.8549 202.387 64.6486 204.211 65.6842Z" id="Auto-Copy" fill="#FFFFFF" fill-rule="evenodd" stroke="none" />
  </g>
  <g id="img" transform="translate(0 3)">
    <path d="M19.7758 3.30536L20.5133 0L20.5129 0.00018692Q20.0068 0.236976 19.4892 0.447368Q18.9716 0.657759 18.4439 0.841192Q17.9161 1.02463 17.3796 1.18061Q16.8431 1.3366 16.2993 1.46473Q15.7555 1.59286 15.2058 1.69279Q14.6561 1.79271 14.102 1.86418Q13.5478 1.93564 12.9908 1.97844Q12.4337 2.02125 11.8752 2.03528Q11.3166 2.04932 10.7581 2.03455Q10.1996 2.01978 9.64257 1.97624Q9.08556 1.9327 8.53153 1.8605Q7.9775 1.78831 7.42793 1.68766Q6.87836 1.58701 6.3347 1.45816Q5.79105 1.32932 5.25476 1.17262Q4.71847 1.01593 4.19097 0.831797Q3.66347 0.647668 3.14616 0.436594L2.07613 0L3.28489 3.32755L7.92613 25.2C7.57454 25.8063 7.31937 26.4636 7.16977 27.1484L6.60859 29.7171C6.36823 30.8173 5.88069 31.8483 5.1829 32.7322L4.91163 33.0759C4.41325 33.7072 3.65322 34.0755 2.8489 34.0755L2.64179 34.0755C1.95657 34.0755 1.29698 34.336 0.796714 34.8043L0 35.55L7.23182 37.0624Q8.30442 37.2867 9.39447 37.3989Q10.4845 37.5112 11.5803 37.5102Q12.6761 37.5092 13.766 37.3949Q14.8558 37.2807 15.928 37.0544L23.0568 35.55L22.2601 34.8043L22.1644 34.7189C21.6772 34.3045 21.0574 34.0755 20.415 34.0755L20.2079 34.0755L20.0876 34.0727C19.3282 34.038 18.6186 33.6756 18.1451 33.0759L17.8739 32.7322L17.7455 32.5648C17.1161 31.7192 16.6735 30.7485 16.4482 29.7171L15.887 27.1484L15.8332 26.9212C15.6795 26.3182 15.4432 25.739 15.1306 25.2L19.7758 3.30536Z" transform="translate(43.6499 63.44995)" id="Combined-Shape" fill="#FFFFFF" fill-rule="evenodd" stroke="none" />
    <path d="M19.7758 3.30536L20.5133 0L20.5129 0.00018692Q20.0068 0.236976 19.4892 0.447368Q18.9716 0.657759 18.4439 0.841192Q17.9161 1.02463 17.3796 1.18061Q16.8431 1.3366 16.2993 1.46473Q15.7555 1.59286 15.2058 1.69279Q14.6561 1.79271 14.102 1.86418Q13.5478 1.93564 12.9908 1.97844Q12.4337 2.02125 11.8752 2.03528Q11.3166 2.04932 10.7581 2.03455Q10.1996 2.01978 9.64257 1.97624Q9.08556 1.9327 8.53153 1.8605Q7.9775 1.78831 7.42793 1.68766Q6.87836 1.58701 6.3347 1.45816Q5.79105 1.32932 5.25476 1.17262Q4.71847 1.01593 4.19097 0.831797Q3.66347 0.647668 3.14616 0.436594L2.07613 0L3.28489 3.32755L7.92613 25.2C7.57454 25.8063 7.31937 26.4636 7.16977 27.1484L6.60859 29.7171C6.36823 30.8173 5.88069 31.8483 5.1829 32.7322L4.91163 33.0759C4.41325 33.7072 3.65322 34.0755 2.8489 34.0755L2.64179 34.0755C1.95657 34.0755 1.29698 34.336 0.796714 34.8043L0 35.55L7.23182 37.0624Q8.30442 37.2867 9.39447 37.3989Q10.4845 37.5112 11.5803 37.5102Q12.6761 37.5092 13.766 37.3949Q14.8558 37.2807 15.928 37.0544L23.0568 35.55L22.2601 34.8043L22.1644 34.7189C21.6772 34.3045 21.0574 34.0755 20.415 34.0755L20.2079 34.0755L20.0876 34.0727C19.3282 34.038 18.6186 33.6756 18.1451 33.0759L17.8739 32.7322L17.7455 32.5648C17.1161 31.7192 16.6735 30.7485 16.4482 29.7171L15.887 27.1484L15.8332 26.9212C15.6795 26.3182 15.4432 25.739 15.1306 25.2L19.7758 3.30536Z" transform="matrix(-0.2419219 -0.9702957 0.9702957 -0.2419219 65.91748 63.29736)" id="Combined-Shape" fill="#FFFFFF" fill-rule="evenodd" stroke="none" />
    <path d="M19.7758 3.30536L20.5133 0L20.5129 0.00018692Q20.0068 0.236976 19.4892 0.447368Q18.9716 0.657759 18.4439 0.841192Q17.9161 1.02463 17.3796 1.18061Q16.8431 1.3366 16.2993 1.46473Q15.7555 1.59286 15.2058 1.69279Q14.6561 1.79271 14.102 1.86418Q13.5478 1.93564 12.9908 1.97844Q12.4337 2.02125 11.8752 2.03528Q11.3166 2.04932 10.7581 2.03455Q10.1996 2.01978 9.64257 1.97624Q9.08556 1.9327 8.53153 1.8605Q7.9775 1.78831 7.42793 1.68766Q6.87836 1.58701 6.3347 1.45816Q5.79105 1.32932 5.25476 1.17262Q4.71847 1.01593 4.19097 0.831797Q3.66347 0.647668 3.14616 0.436594L2.07613 0L3.28489 3.32755L7.92613 25.2C7.57454 25.8063 7.31937 26.4636 7.16977 27.1484L6.60859 29.7171C6.36823 30.8173 5.88069 31.8483 5.1829 32.7322L4.91163 33.0759C4.41325 33.7072 3.65322 34.0755 2.8489 34.0755L2.64179 34.0755C1.95657 34.0755 1.29698 34.336 0.796714 34.8043L0 35.55L7.23182 37.0624Q8.30442 37.2867 9.39447 37.3989Q10.4845 37.5112 11.5803 37.5102Q12.6761 37.5092 13.766 37.3949Q14.8558 37.2807 15.928 37.0544L23.0568 35.55L22.2601 34.8043L22.1644 34.7189C21.6772 34.3045 21.0574 34.0755 20.415 34.0755L20.2079 34.0755L20.0876 34.0727C19.3282 34.038 18.6186 33.6756 18.1451 33.0759L17.8739 32.7322L17.7455 32.5648C17.1161 31.7192 16.6735 30.7485 16.4482 29.7171L15.887 27.1484L15.8332 26.9212C15.6795 26.3182 15.4432 25.739 15.1306 25.2L19.7758 3.30536Z" transform="matrix(-0.2756372 0.9612617 -0.9612617 -0.2756372 50.08936 41.8114)" id="Combined-Shape" fill="#FFFFFF" fill-rule="evenodd" stroke="none" />
    <path d="M109.8 54.9C109.8 85.2204 85.2204 109.8 54.9 109.8C24.5796 109.8 0 85.2204 0 54.9C0 24.5796 24.5796 0 54.9 0C85.2204 0 109.8 24.5796 109.8 54.9ZM99.9 54.9C99.9 79.7528 79.7528 99.9 54.9 99.9C30.0472 99.9 9.9 79.7528 9.9 54.9C9.9 30.0472 30.0472 9.9 54.9 9.9C79.7528 9.9 99.9 30.0472 99.9 54.9Z" id="Combined-Shape" fill="#FFFFFF" fill-rule="evenodd" stroke="none" />
    <path d="M26.1 13.05C26.1 20.2573 20.2573 26.1 13.05 26.1C5.84268 26.1 0 20.2573 0 13.05C0 5.84268 5.84268 0 13.05 0C20.2573 0 26.1 5.84268 26.1 13.05ZM21.15 13.05C21.15 17.5235 17.5235 21.15 13.05 21.15C8.57649 21.15 4.95 17.5235 4.95 13.05C4.95 8.57649 8.57649 4.95 13.05 4.95C17.5235 4.95 21.15 8.57649 21.15 13.05Z" transform="translate(41.8501 41.84998)" id="Combined-Shape" fill="#FFFFFF" fill-rule="evenodd" stroke="none" />
  </g>
</svg>