<?xml version="1.0" encoding="utf-8"?>
<svg width="116px" height="116px" viewBox="0 0 116 116" version="1.1" xmlns:xlink="http://www.w3.org/1999/xlink" xmlns="http://www.w3.org/2000/svg">
  <desc>Created with Lunacy</desc>
  <g id="img" transform="translate(0 3)">
    <path d="M19.7758 3.30536L20.5133 0L20.5129 0.00018692Q20.0068 0.236976 19.4892 0.447368Q18.9716 0.657759 18.4439 0.841192Q17.9161 1.02463 17.3796 1.18061Q16.8431 1.3366 16.2993 1.46473Q15.7555 1.59286 15.2058 1.69279Q14.6561 1.79271 14.102 1.86418Q13.5478 1.93564 12.9908 1.97844Q12.4337 2.02125 11.8752 2.03528Q11.3166 2.04932 10.7581 2.03455Q10.1996 2.01978 9.64257 1.97624Q9.08556 1.9327 8.53153 1.8605Q7.9775 1.78831 7.42793 1.68766Q6.87836 1.58701 6.3347 1.45816Q5.79105 1.32932 5.25476 1.17262Q4.71847 1.01593 4.19097 0.831797Q3.66347 0.647668 3.14616 0.436594L2.07613 0L3.28489 3.32755L7.92613 25.2C7.57454 25.8063 7.31937 26.4636 7.16977 27.1484L6.60859 29.7171C6.36823 30.8173 5.88069 31.8483 5.1829 32.7322L4.91163 33.0759C4.41325 33.7072 3.65322 34.0755 2.8489 34.0755L2.64179 34.0755C1.95657 34.0755 1.29698 34.336 0.796714 34.8043L0 35.55L7.23182 37.0624Q8.30442 37.2867 9.39447 37.3989Q10.4845 37.5112 11.5803 37.5102Q12.6761 37.5092 13.766 37.3949Q14.8558 37.2807 15.928 37.0544L23.0568 35.55L22.2601 34.8043L22.1644 34.7189C21.6772 34.3045 21.0574 34.0755 20.415 34.0755L20.2079 34.0755L20.0876 34.0727C19.3282 34.038 18.6186 33.6756 18.1451 33.0759L17.8739 32.7322L17.7455 32.5648C17.1161 31.7192 16.6735 30.7485 16.4482 29.7171L15.887 27.1484L15.8332 26.9212C15.6795 26.3182 15.4432 25.739 15.1306 25.2L19.7758 3.30536Z" transform="translate(43.6499 63.44995)" id="Combined-Shape" fill="#FFFFFF" fill-rule="evenodd" stroke="none" />
    <path d="M19.7758 3.30536L20.5133 0L20.5129 0.00018692Q20.0068 0.236976 19.4892 0.447368Q18.9716 0.657759 18.4439 0.841192Q17.9161 1.02463 17.3796 1.18061Q16.8431 1.3366 16.2993 1.46473Q15.7555 1.59286 15.2058 1.69279Q14.6561 1.79271 14.102 1.86418Q13.5478 1.93564 12.9908 1.97844Q12.4337 2.02125 11.8752 2.03528Q11.3166 2.04932 10.7581 2.03455Q10.1996 2.01978 9.64257 1.97624Q9.08556 1.9327 8.53153 1.8605Q7.9775 1.78831 7.42793 1.68766Q6.87836 1.58701 6.3347 1.45816Q5.79105 1.32932 5.25476 1.17262Q4.71847 1.01593 4.19097 0.831797Q3.66347 0.647668 3.14616 0.436594L2.07613 0L3.28489 3.32755L7.92613 25.2C7.57454 25.8063 7.31937 26.4636 7.16977 27.1484L6.60859 29.7171C6.36823 30.8173 5.88069 31.8483 5.1829 32.7322L4.91163 33.0759C4.41325 33.7072 3.65322 34.0755 2.8489 34.0755L2.64179 34.0755C1.95657 34.0755 1.29698 34.336 0.796714 34.8043L0 35.55L7.23182 37.0624Q8.30442 37.2867 9.39447 37.3989Q10.4845 37.5112 11.5803 37.5102Q12.6761 37.5092 13.766 37.3949Q14.8558 37.2807 15.928 37.0544L23.0568 35.55L22.2601 34.8043L22.1644 34.7189C21.6772 34.3045 21.0574 34.0755 20.415 34.0755L20.2079 34.0755L20.0876 34.0727C19.3282 34.038 18.6186 33.6756 18.1451 33.0759L17.8739 32.7322L17.7455 32.5648C17.1161 31.7192 16.6735 30.7485 16.4482 29.7171L15.887 27.1484L15.8332 26.9212C15.6795 26.3182 15.4432 25.739 15.1306 25.2L19.7758 3.30536Z" transform="matrix(-0.2419219 -0.9702957 0.9702957 -0.2419219 65.91748 63.29736)" id="Combined-Shape" fill="#FFFFFF" fill-rule="evenodd" stroke="none" />
    <path d="M19.7758 3.30536L20.5133 0L20.5129 0.00018692Q20.0068 0.236976 19.4892 0.447368Q18.9716 0.657759 18.4439 0.841192Q17.9161 1.02463 17.3796 1.18061Q16.8431 1.3366 16.2993 1.46473Q15.7555 1.59286 15.2058 1.69279Q14.6561 1.79271 14.102 1.86418Q13.5478 1.93564 12.9908 1.97844Q12.4337 2.02125 11.8752 2.03528Q11.3166 2.04932 10.7581 2.03455Q10.1996 2.01978 9.64257 1.97624Q9.08556 1.9327 8.53153 1.8605Q7.9775 1.78831 7.42793 1.68766Q6.87836 1.58701 6.3347 1.45816Q5.79105 1.32932 5.25476 1.17262Q4.71847 1.01593 4.19097 0.831797Q3.66347 0.647668 3.14616 0.436594L2.07613 0L3.28489 3.32755L7.92613 25.2C7.57454 25.8063 7.31937 26.4636 7.16977 27.1484L6.60859 29.7171C6.36823 30.8173 5.88069 31.8483 5.1829 32.7322L4.91163 33.0759C4.41325 33.7072 3.65322 34.0755 2.8489 34.0755L2.64179 34.0755C1.95657 34.0755 1.29698 34.336 0.796714 34.8043L0 35.55L7.23182 37.0624Q8.30442 37.2867 9.39447 37.3989Q10.4845 37.5112 11.5803 37.5102Q12.6761 37.5092 13.766 37.3949Q14.8558 37.2807 15.928 37.0544L23.0568 35.55L22.2601 34.8043L22.1644 34.7189C21.6772 34.3045 21.0574 34.0755 20.415 34.0755L20.2079 34.0755L20.0876 34.0727C19.3282 34.038 18.6186 33.6756 18.1451 33.0759L17.8739 32.7322L17.7455 32.5648C17.1161 31.7192 16.6735 30.7485 16.4482 29.7171L15.887 27.1484L15.8332 26.9212C15.6795 26.3182 15.4432 25.739 15.1306 25.2L19.7758 3.30536Z" transform="matrix(-0.2756372 0.9612617 -0.9612617 -0.2756372 50.08936 41.8114)" id="Combined-Shape" fill="#FFFFFF" fill-rule="evenodd" stroke="none" />
    <path d="M109.8 54.9C109.8 85.2204 85.2204 109.8 54.9 109.8C24.5796 109.8 0 85.2204 0 54.9C0 24.5796 24.5796 0 54.9 0C85.2204 0 109.8 24.5796 109.8 54.9ZM99.9 54.9C99.9 79.7528 79.7528 99.9 54.9 99.9C30.0472 99.9 9.9 79.7528 9.9 54.9C9.9 30.0472 30.0472 9.9 54.9 9.9C79.7528 9.9 99.9 30.0472 99.9 54.9Z" id="Combined-Shape" fill="#FFFFFF" fill-rule="evenodd" stroke="none" />
    <path d="M26.1 13.05C26.1 20.2573 20.2573 26.1 13.05 26.1C5.84268 26.1 0 20.2573 0 13.05C0 5.84268 5.84268 0 13.05 0C20.2573 0 26.1 5.84268 26.1 13.05ZM21.15 13.05C21.15 17.5235 17.5235 21.15 13.05 21.15C8.57649 21.15 4.95 17.5235 4.95 13.05C4.95 8.57649 8.57649 4.95 13.05 4.95C17.5235 4.95 21.15 8.57649 21.15 13.05Z" transform="translate(41.8501 41.84998)" id="Combined-Shape" fill="#FFFFFF" fill-rule="evenodd" stroke="none" />
  </g>
</svg>